  0
SECTION
  2
HEADER
  9
$ACADVER
  1
AC1009
  9
$INSBASE
 10
0.0
 20
0.0
 30
0.0
  9
$EXTMIN
 10
0.0
 20
0.0
 30
0.0
  9
$EXTMAX
 10
0.0
 20
0.0
 30
0.0
  0
ENDSEC
  0
SECTION
  2
TABLES
  0
TABLE
  2
VPORT
 70
0
  0
ENDTAB
  0
TABLE
  2
LTYPE
 70
1
  0
LTYPE
  2
CONTINUOUS
 70
0
  3
Solid line
 72
65
 73
0
 40
0.0
  0
ENDTAB
  0
TABLE
  2
LAYER
 70
1
  0
LAYER
  2
0
 70
64
 62
7
  6
continuous
  0
ENDTAB
  0
TABLE
  2
STYLE
 70
1
  0
STYLE
  2
STANDARD
 70
0
 40
0
 41
1.0
 50
0.0
 71
0
 42
1
 3
ARIAL.TTF
 4

  0
ENDTAB
  0
TABLE
  2
VIEW
 70
0
  0
ENDTAB
  0
ENDSEC
  0
SECTION
  2
BLOCKS
  0
ENDSEC
  0
SECTION
  2
ENTITIES
  0
POLYLINE
  8
walls
 62
0
 70
0
 66
1
 10
0.0
 20
0.0
 30
0.0
  0
VERTEX
  8
walls
 10
-28.901370047628735
 20
4185.147216796875
 30
0.0
  0
VERTEX
  8
walls
 10
-5028.901370048523
 20
4185.147216796875
 30
0.0
  0
VERTEX
  8
walls
 10
-5028.901370048523
 20
3185.147216796875
 30
0.0
  0
VERTEX
  8
walls
 10
-4028.901370048523
 20
3185.147216796875
 30
0.0
  0
VERTEX
  8
walls
 10
-4028.901370048523
 20
-1814.852783203125
 30
0.0
  0
VERTEX
  8
walls
 10
-3028.901370048523
 20
-2814.852783203125
 30
0.0
  0
VERTEX
  8
walls
 10
-2028.901370048523
 20
-2814.852783203125
 30
0.0
  0
VERTEX
  8
walls
 10
-2028.901370048523
 20
-3814.852783203125
 30
0.0
  0
VERTEX
  8
walls
 10
-1829.678957939148
 20
-3814.852783203125
 30
0.0
  0
VERTEX
  8
walls
 10
-1829.678957939148
 20
-3762.9990234375
 30
0.0
  0
VERTEX
  8
walls
 10
-1694.583987236023
 20
-3762.9990234375
 30
0.0
  0
VERTEX
  8
walls
 10
-1694.583987236023
 20
-3815.8623046875
 30
0.0
  0
VERTEX
  8
walls
 10
-1028.901370048523
 20
-3814.852783203125
 30
0.0
  0
VERTEX
  8
walls
 10
9971.098629951477
 20
-3814.852783203125
 30
0.0
  0
VERTEX
  8
walls
 10
10971.098629951477
 20
-814.852783203125
 30
0.0
  0
VERTEX
  8
walls
 10
10971.098629951477
 20
185.147216796875
 30
0.0
  0
VERTEX
  8
walls
 10
9971.098629951477
 20
185.147216796875
 30
0.0
  0
VERTEX
  8
walls
 10
9971.098629951477
 20
452.5418395996094
 30
0.0
  0
VERTEX
  8
walls
 10
10192.239254951477
 20
452.5418395996094
 30
0.0
  0
VERTEX
  8
walls
 10
10192.239254951477
 20
662.968994140625
 30
0.0
  0
VERTEX
  8
walls
 10
9972.340817451477
 20
662.968994140625
 30
0.0
  0
VERTEX
  8
walls
 10
9971.098629951477
 20
1185.147216796875
 30
0.0
  0
VERTEX
  8
walls
 10
9971.098629951477
 20
4185.147216796875
 30
0.0
  0
VERTEX
  8
walls
 10
-28.901370047628735
 20
4185.147216796875
 30
0.0
  0
SEQEND
  8
walls
  0
LINE
  8
walls
 62
0
 10
-28.901370047628735
 20
4185.147216796875
 30
0.0
 11
9971.098629951477
 21
4185.147216796875
 31
0.0
  0
POLYLINE
  8
walls
 62
0
 70
1
 66
1
 10
0.0
 20
0.0
 30
0.0
  0
VERTEX
  8
walls
 10
-57.46332931518555
 20
4042.6923828125
 30
0.0
  0
VERTEX
  8
walls
 10
946.2493867874146
 20
4042.6923828125
 30
0.0
  0
VERTEX
  8
walls
 10
946.2493867874146
 20
4180.884765625
 30
0.0
  0
VERTEX
  8
walls
 10
-57.46332931518555
 20
4180.884765625
 30
0.0
  0
SEQEND
  8
walls
  0
POLYLINE
  8
walls
 62
0
 70
1
 66
1
 10
0.0
 20
0.0
 30
0.0
  0
VERTEX
  8
walls
 10
6945.270016670227
 20
-3814.8125
 30
0.0
  0
VERTEX
  8
walls
 10
7945.307614326477
 20
-3814.8125
 30
0.0
  0
VERTEX
  8
walls
 10
7945.307614326477
 20
-3772.3271484375
 30
0.0
  0
VERTEX
  8
walls
 10
6945.270016670227
 20
-3772.3271484375
 30
0.0
  0
SEQEND
  8
walls
  0
POLYLINE
  8
walls
 62
0
 70
0
 66
1
 10
0.0
 20
0.0
 30
0.0
  0
VERTEX
  8
walls
 10
-4028.618408203125
 20
4180.245605468749
 30
0.0
  0
VERTEX
  8
walls
 10
-4028.618408203125
 20
3852.947021484374
 30
0.0
  0
SEQEND
  8
walls
  0
POLYLINE
  8
free_space
 62
0
 70
1
 66
1
 10
0.0
 20
0.0
 30
0.0
  0
VERTEX
  8
free_space
 10
2000.137448310852
 20
951.7065429687491
 30
0.0
  0
VERTEX
  8
free_space
 10
-5028.901370048523
 20
4185.147216796875
 30
0.0
  0
VERTEX
  8
free_space
 10
-5028.901370048523
 20
3185.147216796875
 30
0.0
  0
VERTEX
  8
free_space
 10
-4028.901370048523
 20
3185.147216796875
 30
0.0
  0
VERTEX
  8
free_space
 10
-4028.901370048523
 20
-1814.852783203125
 30
0.0
  0
VERTEX
  8
free_space
 10
-3028.901370048523
 20
-2814.852783203125
 30
0.0
  0
VERTEX
  8
free_space
 10
-2028.901370048523
 20
-2814.852783203125
 30
0.0
  0
VERTEX
  8
free_space
 10
-2028.901370048523
 20
-3814.852783203125
 30
0.0
  0
VERTEX
  8
free_space
 10
-1829.678957939148
 20
-3814.852783203125
 30
0.0
  0
VERTEX
  8
free_space
 10
-1829.678957939148
 20
-3762.9990234375
 30
0.0
  0
VERTEX
  8
free_space
 10
-1694.583987236023
 20
-3762.9990234375
 30
0.0
  0
VERTEX
  8
free_space
 10
-1694.583987236023
 20
-3815.8623046875
 30
0.0
  0
VERTEX
  8
free_space
 10
-1028.901370048523
 20
-3814.852783203125
 30
0.0
  0
VERTEX
  8
free_space
 10
9971.098629951477
 20
-3814.852783203125
 30
0.0
  0
VERTEX
  8
free_space
 10
10971.098629951477
 20
-814.852783203125
 30
0.0
  0
VERTEX
  8
free_space
 10
10971.098629951477
 20
185.147216796875
 30
0.0
  0
VERTEX
  8
free_space
 10
9971.098629951477
 20
185.147216796875
 30
0.0
  0
VERTEX
  8
free_space
 10
9971.098629951477
 20
452.5418395996094
 30
0.0
  0
VERTEX
  8
free_space
 10
10192.239254951477
 20
452.5418395996094
 30
0.0
  0
VERTEX
  8
free_space
 10
10192.239254951477
 20
662.968994140625
 30
0.0
  0
VERTEX
  8
free_space
 10
9972.340817451477
 20
662.968994140625
 30
0.0
  0
VERTEX
  8
free_space
 10
9971.098629951477
 20
1185.147216796875
 30
0.0
  0
VERTEX
  8
free_space
 10
9971.098629951477
 20
4185.147216796875
 30
0.0
  0
VERTEX
  8
free_space
 10
-28.901370046734524
 20
4185.147216796875
 30
0.0
  0
VERTEX
  8
free_space
 10
9971.098629951477
 20
4185.147216796875
 30
0.0
  0
VERTEX
  8
free_space
 10
12000.137448310852
 20
951.7065429687491
 30
0.0
  0
SEQEND
  8
free_space
  0
POLYLINE
  8
drivable_zone
 62
0
 70
0
 66
1
 10
0.0
 20
0.0
 30
0.0
  0
VERTEX
  8
drivable_zone
 10
-28.90137004852295
 20
4185.147216796875
 30
0.0
  0
VERTEX
  8
drivable_zone
 10
-5028.901370048523
 20
4185.147216796875
 30
0.0
  0
VERTEX
  8
drivable_zone
 10
-5028.901370048523
 20
3185.147216796875
 30
0.0
  0
VERTEX
  8
drivable_zone
 10
-4028.901370048523
 20
3185.147216796875
 30
0.0
  0
VERTEX
  8
drivable_zone
 10
-4028.901370048523
 20
-1814.852783203125
 30
0.0
  0
VERTEX
  8
drivable_zone
 10
-3028.901370048523
 20
-2814.852783203125
 30
0.0
  0
VERTEX
  8
drivable_zone
 10
-2028.901370048523
 20
-2814.852783203125
 30
0.0
  0
VERTEX
  8
drivable_zone
 10
-2028.901370048523
 20
-3814.852783203125
 30
0.0
  0
VERTEX
  8
drivable_zone
 10
-1829.678957939148
 20
-3814.852783203125
 30
0.0
  0
VERTEX
  8
drivable_zone
 10
-1829.678957939148
 20
-3762.9990234375
 30
0.0
  0
VERTEX
  8
drivable_zone
 10
-1694.583987236023
 20
-3762.9990234375
 30
0.0
  0
VERTEX
  8
drivable_zone
 10
-1694.583987236023
 20
-3815.8623046875
 30
0.0
  0
VERTEX
  8
drivable_zone
 10
-1028.901370048523
 20
-3814.852783203125
 30
0.0
  0
VERTEX
  8
drivable_zone
 10
9971.098629951477
 20
-3814.852783203125
 30
0.0
  0
VERTEX
  8
drivable_zone
 10
10971.098629951477
 20
-814.852783203125
 30
0.0
  0
VERTEX
  8
drivable_zone
 10
10971.098629951477
 20
185.147216796875
 30
0.0
  0
VERTEX
  8
drivable_zone
 10
9971.098629951477
 20
185.147216796875
 30
0.0
  0
VERTEX
  8
drivable_zone
 10
9971.098629951477
 20
452.5418395996094
 30
0.0
  0
VERTEX
  8
drivable_zone
 10
10192.239254951477
 20
452.5418395996094
 30
0.0
  0
VERTEX
  8
drivable_zone
 10
10192.239254951477
 20
662.968994140625
 30
0.0
  0
VERTEX
  8
drivable_zone
 10
9972.340817451477
 20
662.968994140625
 30
0.0
  0
VERTEX
  8
drivable_zone
 10
9971.098629951477
 20
1185.147216796875
 30
0.0
  0
VERTEX
  8
drivable_zone
 10
9971.098629951477
 20
4185.147216796875
 30
0.0
  0
VERTEX
  8
drivable_zone
 10
-28.90137004852295
 20
4185.147216796875
 30
0.0
  0
SEQEND
  8
drivable_zone
  0
LINE
  8
drivable_zone
 62
0
 10
-28.90137004852295
 20
4185.147216796875
 30
0.0
 11
9971.098629951477
 21
4185.147216796875
 31
0.0
  0
LINE
  8
drivable_zone
 62
0
 10
9971.098629951477
 20
4185.147216796875
 30
0.0
 11
-28.90137004852295
 21
4185.147216796875
 31
0.0
  0
POLYLINE
  8
exclusion_zone
 62
0
 70
1
 66
1
 10
0.0
 20
0.0
 30
0.0
  0
VERTEX
  8
exclusion_zone
 10
10971.098629951477
 20
-2814.852783203125
 30
0.0
  0
VERTEX
  8
exclusion_zone
 10
-4028.901370048523
 20
-2814.852783203125
 30
0.0
  0
VERTEX
  8
exclusion_zone
 10
-4028.901370048523
 20
-3814.852783203125
 30
0.0
  0
VERTEX
  8
exclusion_zone
 10
10971.098629951477
 20
-3814.852783203125
 30
0.0
  0
SEQEND
  8
exclusion_zone
  0
POLYLINE
  8
paths
 62
0
 70
0
 66
1
 10
0.0
 20
0.0
 30
0.0
  0
VERTEX
  8
paths
 10
443.1559724807739
 20
3722.86083984375
 30
0.0
  0
VERTEX
  8
paths
 10
443.1559724807739
 20
174.7597484588623
 30
0.0
  0
VERTEX
  8
paths
 10
7452.554684638977
 20
174.7597484588623
 30
0.0
  0
VERTEX
  8
paths
 10
7452.554684638977
 20
-3622.902587890625
 30
0.0
  0
SEQEND
  8
paths
  0
POLYLINE
  8
avoid_zone
 62
0
 70
1
 66
1
 10
0.0
 20
0.0
 30
0.0
  0
VERTEX
  8
avoid_zone
 10
971.098629951477
 20
2185.147216796875
 30
0.0
  0
VERTEX
  8
avoid_zone
 10
971.098629951477
 20
1185.147216796875
 30
0.0
  0
VERTEX
  8
avoid_zone
 10
4971.098629951477
 20
1185.147216796875
 30
0.0
  0
VERTEX
  8
avoid_zone
 10
4971.098629951477
 20
2185.147216796875
 30
0.0
  0
SEQEND
  8
avoid_zone
  0
CIRCLE
  8
poles
 62
0
 10
-3849.6752347946167
 20
3283.232177734375
 30
0.0
 40
70.0
  0
CIRCLE
  8
poles
 62
0
 10
-57.43649387359619
 20
3792.36181640625
 30
0.0
 40
70.0
  0
CIRCLE
  8
poles
 62
0
 10
945.8673648834229
 20
3795.6298828125
 30
0.0
 40
70.0
  0
CIRCLE
  8
poles
 62
0
 10
9763.696649551392
 20
81.50723266601562
 30
0.0
 40
70.0
  0
CIRCLE
  8
poles
 62
0
 10
7942.434564590454
 20
-3630.420654296875
 30
0.0
 40
70.0
  0
CIRCLE
  8
poles
 62
0
 10
-2811.976079940796
 20
-2544.2998046875
 30
0.0
 40
70.0
  0
CIRCLE
  8
poles
 62
0
 10
6942.770990371704
 20
-3635.296142578125
 30
0.0
 40
70.0
  0
ENDSEC
  0
EOF
